<svg width="213" height="56" viewBox="0 0 213 56" fill="none" xmlns="http://www.w3.org/2000/svg">
<path d="M76.5152 52.288C74.8192 52.288 73.3632 51.928 72.1472 51.208C70.9312 50.472 69.9952 49.456 69.3392 48.16C68.6832 46.848 68.3552 45.336 68.3552 43.624C68.3552 41.912 68.6832 40.4 69.3392 39.088C69.9952 37.776 70.9312 36.752 72.1472 36.016C73.3632 35.28 74.8192 34.912 76.5152 34.912C78.5312 34.912 80.1792 35.416 81.4592 36.424C82.7552 37.416 83.5632 38.816 83.8832 40.624H80.4992C80.2912 39.712 79.8432 39 79.1552 38.488C78.4832 37.96 77.5872 37.696 76.4672 37.696C74.9152 37.696 73.6992 38.224 72.8192 39.28C71.9392 40.336 71.4992 41.784 71.4992 43.624C71.4992 45.464 71.9392 46.912 72.8192 47.968C73.6992 49.008 74.9152 49.528 76.4672 49.528C77.5872 49.528 78.4832 49.288 79.1552 48.808C79.8432 48.312 80.2912 47.632 80.4992 46.768H83.8832C83.5632 48.496 82.7552 49.848 81.4592 50.824C80.1792 51.8 78.5312 52.288 76.5152 52.288ZM85.4505 52V34.72H88.5225V41.92C88.9225 41.264 89.4585 40.752 90.1305 40.384C90.8185 40 91.6025 39.808 92.4825 39.808C93.9545 39.808 95.0905 40.272 95.8905 41.2C96.7065 42.128 97.1145 43.488 97.1145 45.28V52H94.0665V45.568C94.0665 44.544 93.8585 43.76 93.4425 43.216C93.0425 42.672 92.4025 42.4 91.5225 42.4C90.6585 42.4 89.9385 42.704 89.3625 43.312C88.8025 43.92 88.5225 44.768 88.5225 45.856V52H85.4505ZM103.076 52.288C102.052 52.288 101.212 52.128 100.556 51.808C99.9 51.472 99.412 51.032 99.092 50.488C98.772 49.944 98.612 49.344 98.612 48.688C98.612 47.584 99.044 46.688 99.908 46C100.772 45.312 102.068 44.968 103.796 44.968H106.82V44.68C106.82 43.864 106.588 43.264 106.124 42.88C105.66 42.496 105.084 42.304 104.396 42.304C103.772 42.304 103.228 42.456 102.764 42.76C102.3 43.048 102.012 43.48 101.9 44.056H98.9C98.98 43.192 99.268 42.44 99.764 41.8C100.276 41.16 100.932 40.672 101.732 40.336C102.532 39.984 103.428 39.808 104.42 39.808C106.116 39.808 107.452 40.232 108.428 41.08C109.404 41.928 109.892 43.128 109.892 44.68V52H107.276L106.988 50.08C106.636 50.72 106.14 51.248 105.5 51.664C104.876 52.08 104.068 52.288 103.076 52.288ZM103.772 49.888C104.652 49.888 105.332 49.6 105.812 49.024C106.308 48.448 106.62 47.736 106.748 46.888H104.132C103.316 46.888 102.732 47.04 102.38 47.344C102.028 47.632 101.852 47.992 101.852 48.424C101.852 48.888 102.028 49.248 102.38 49.504C102.732 49.76 103.196 49.888 103.772 49.888ZM116.884 52C115.636 52 114.636 51.696 113.884 51.088C113.132 50.48 112.756 49.4 112.756 47.848V42.664H110.716V40.096H112.756L113.116 36.904H115.828V40.096H119.044V42.664H115.828V47.872C115.828 48.448 115.948 48.848 116.188 49.072C116.444 49.28 116.876 49.384 117.484 49.384H118.972V52H116.884ZM127.657 52.288C126.761 52.288 125.977 52.12 125.305 51.784C124.633 51.448 124.089 50.976 123.673 50.368L123.337 52H120.601V34.72H123.673V41.8C124.057 41.272 124.561 40.808 125.185 40.408C125.825 40.008 126.649 39.808 127.657 39.808C128.777 39.808 129.777 40.08 130.657 40.624C131.537 41.168 132.233 41.912 132.745 42.856C133.257 43.8 133.513 44.872 133.513 46.072C133.513 47.272 133.257 48.344 132.745 49.288C132.233 50.216 131.537 50.952 130.657 51.496C129.777 52.024 128.777 52.288 127.657 52.288ZM127.009 49.6C127.985 49.6 128.793 49.272 129.433 48.616C130.073 47.96 130.393 47.112 130.393 46.072C130.393 45.032 130.073 44.176 129.433 43.504C128.793 42.832 127.985 42.496 127.009 42.496C126.017 42.496 125.201 42.832 124.561 43.504C123.937 44.16 123.625 45.008 123.625 46.048C123.625 47.088 123.937 47.944 124.561 48.616C125.201 49.272 126.017 49.6 127.009 49.6ZM140.889 52.288C139.737 52.288 138.697 52.024 137.769 51.496C136.857 50.968 136.129 50.24 135.585 49.312C135.057 48.368 134.793 47.28 134.793 46.048C134.793 44.816 135.065 43.736 135.609 42.808C136.153 41.864 136.881 41.128 137.793 40.6C138.721 40.072 139.761 39.808 140.913 39.808C142.049 39.808 143.073 40.072 143.985 40.6C144.913 41.128 145.641 41.864 146.169 42.808C146.713 43.736 146.985 44.816 146.985 46.048C146.985 47.28 146.713 48.368 146.169 49.312C145.641 50.24 144.913 50.968 143.985 51.496C143.057 52.024 142.025 52.288 140.889 52.288ZM140.889 49.624C141.689 49.624 142.385 49.328 142.977 48.736C143.569 48.128 143.865 47.232 143.865 46.048C143.865 44.864 143.569 43.976 142.977 43.384C142.385 42.776 141.697 42.472 140.913 42.472C140.097 42.472 139.393 42.776 138.801 43.384C138.225 43.976 137.937 44.864 137.937 46.048C137.937 47.232 138.225 48.128 138.801 48.736C139.393 49.328 140.089 49.624 140.889 49.624ZM153.487 52C152.239 52 151.239 51.696 150.487 51.088C149.735 50.48 149.359 49.4 149.359 47.848V42.664H147.319V40.096H149.359L149.719 36.904H152.431V40.096H155.647V42.664H152.431V47.872C152.431 48.448 152.551 48.848 152.791 49.072C153.047 49.28 153.479 49.384 154.087 49.384H155.575V52H153.487Z" fill="black"/>
<path d="M17.9837 31.3906H17.971C17.8711 31.3906 17.768 31.3872 17.6681 31.3811C17.5616 31.3745 17.4555 31.3649 17.3525 31.3519C17.2494 31.3389 17.1429 31.3231 17.0399 31.307C17.0338 31.3045 17.0272 31.3035 17.0206 31.3039C16.9238 31.2847 16.827 31.2624 16.7305 31.2398C16.5765 31.2054 16.4248 31.1615 16.2763 31.1085H16.2729C16.1216 31.0571 15.9765 30.9995 15.8315 30.9354C15.7832 30.9128 15.735 30.8936 15.6898 30.8668C15.6447 30.8401 15.593 30.8219 15.5479 30.7983L15.5448 30.7952C15.4965 30.7695 15.4514 30.7437 15.4069 30.718C15.3625 30.6923 15.3135 30.667 15.2691 30.6382C15.1885 30.5898 15.1078 30.5418 15.0306 30.4904C14.842 30.3613 14.6612 30.2212 14.4893 30.0708C14.4376 30.0259 14.3925 29.9841 14.3442 29.9361C14.3122 29.9073 14.2832 29.8781 14.2508 29.8462C14.1929 29.7887 14.1347 29.7276 14.0785 29.6666C14.0224 29.6056 13.9693 29.5418 13.9145 29.4777C13.8597 29.4136 13.808 29.3495 13.7598 29.282C13.7116 29.2144 13.6599 29.1448 13.6116 29.0735L13.4955 28.9021L13.4569 28.8442C12.9659 28.0262 12.7065 27.0913 12.7061 26.1386C12.7044 25.0951 13.0188 24.0752 13.6082 23.212L17.8711 16.9229L17.9775 16.769L18.1288 16.5445L20.7194 12.7203L26.0391 4.87623C26.0407 4.87272 26.0427 4.86949 26.0453 4.86663L26.2934 4.50118C26.6732 3.91357 27.1671 3.40736 27.7462 3.01226C28.3253 2.61715 28.9779 2.34111 29.6657 2.20035C30.3534 2.05959 31.0626 2.05694 31.7514 2.19255C32.4402 2.32817 33.0949 2.59931 33.677 2.99007C34.259 3.38083 34.7567 3.88333 35.1409 4.46808C35.5251 5.05283 35.788 5.70805 35.9141 6.39527C36.0406 7.08249 36.0275 7.78784 35.8759 8.46998C35.7243 9.15213 35.4372 9.79725 35.0316 10.3675L26.7962 22.5133C26.7931 22.5164 26.7931 22.5198 26.7896 22.5229L24.5215 25.8695L22.3917 29.0108C22.382 29.0238 22.3755 29.0334 22.3689 29.043C22.3634 29.0549 22.3558 29.0657 22.3465 29.0749V29.0783C22.2821 29.1712 22.2145 29.2611 22.1467 29.3474C22.139 29.3634 22.1281 29.3777 22.1146 29.3893C22.0695 29.4503 22.0178 29.511 21.9664 29.5686C21.8858 29.6649 21.7986 29.7578 21.7087 29.8476L21.7022 29.8541C21.6332 29.9227 21.5667 29.9854 21.4954 30.0495C21.4664 30.0722 21.4375 30.0975 21.4086 30.1232C21.3569 30.1712 21.3021 30.2131 21.2473 30.2549C21.2329 30.2696 21.2166 30.2825 21.1991 30.2933C21.1475 30.3356 21.0938 30.3752 21.0381 30.4119C21.0037 30.4404 20.9671 30.466 20.9286 30.4887C20.9286 30.4918 20.9251 30.4918 20.9251 30.4918C20.7496 30.6085 20.5678 30.7156 20.3807 30.8127C20.2969 30.8541 20.2101 30.896 20.126 30.9344C20.1229 30.9344 20.1229 30.9374 20.1198 30.9374C20.023 30.9793 19.9296 31.0177 19.8331 31.053C19.7366 31.0883 19.6333 31.1236 19.5302 31.1558C19.4272 31.188 19.3273 31.2134 19.2273 31.2391C19.1274 31.2648 19.0306 31.284 18.9341 31.3032C18.9223 31.3038 18.9108 31.306 18.8996 31.3097C18.7997 31.3259 18.7032 31.3416 18.6033 31.3512C18.5034 31.3608 18.3938 31.3739 18.2873 31.3804C18.1867 31.3872 18.0871 31.3906 17.9837 31.3906Z" fill="url(#paint0_linear_806_292)"/>
<path d="M18.0147 31.3906H18.002C17.9018 31.3906 17.7984 31.3872 17.6982 31.381C17.5914 31.3745 17.4851 31.3648 17.3817 31.3518C17.2784 31.3387 17.1716 31.3229 17.0683 31.3067C17.0622 31.3042 17.0556 31.3032 17.049 31.3036C16.9519 31.2843 16.8548 31.262 16.758 31.2393C16.4489 31.1646 16.1472 31.0623 15.8565 30.9338C15.7597 30.8918 15.6657 30.8436 15.5721 30.7985L15.569 30.7954C15.4753 30.7473 15.3817 30.6922 15.2925 30.6379C15.2117 30.5894 15.1308 30.5412 15.0534 30.4896C14.8643 30.36 14.683 30.2194 14.5105 30.0685C14.4266 29.9945 14.3488 29.9202 14.2714 29.8431C14.0342 29.6052 13.8201 29.3456 13.6318 29.0676L13.5154 28.8956L13.4767 28.8375L12.3101 27.1196L12.307 27.1165C12.307 27.1131 12.3039 27.1131 12.3039 27.11C12.3039 27.1069 12.3005 27.1069 12.3005 27.1034H12.2973C12.2925 27.0974 12.2881 27.0909 12.2842 27.0842L8.20672 21.065L7.72541 20.3542L0.904624 10.2946C0.310656 9.41906 -0.00457278 8.38571 5.01277e-05 7.3292C0.00467303 6.27266 0.328937 5.24206 0.930544 4.37176C0.953004 4.33976 0.972355 4.31396 0.988596 4.29469C1.45589 3.63837 2.06896 3.09825 2.78012 2.71634C3.49127 2.33444 4.28137 2.12105 5.08888 2.09277H5.59611C6.40769 2.1418 7.19706 2.37623 7.90302 2.77788C8.60897 3.17953 9.21257 3.73762 9.66704 4.40891L13.6543 10.2963L13.8029 10.5151L15.845 13.5262L16.1616 13.9959C16.1647 14.003 16.1692 14.0095 16.1747 14.0151L18.0099 16.7207L18.0258 16.7431L22.3911 23.1837C22.9737 24.0448 23.2879 25.0581 23.294 26.0964C23.3002 27.1347 22.9981 28.1516 22.4257 29.0195C22.4126 29.0387 22.3997 29.058 22.3911 29.0742C22.3265 29.1674 22.2588 29.2575 22.1907 29.3442C22.1327 29.4217 22.0746 29.4956 22.01 29.5662C21.9291 29.6628 21.8417 29.7561 21.7515 29.8462L21.7449 29.8527C21.6513 29.946 21.5542 30.0361 21.4509 30.1228C21.3991 30.171 21.3441 30.213 21.2892 30.2549C21.2747 30.2697 21.2584 30.2827 21.2408 30.2935C21.1891 30.336 21.1353 30.3757 21.0794 30.4125C21.0431 30.4412 21.0053 30.4679 20.9661 30.4927C20.7099 30.664 20.4398 30.8136 20.1585 30.9399C20.0614 30.9819 19.9678 31.0205 19.871 31.0559C19.7743 31.0913 19.6706 31.1268 19.5673 31.1591C19.464 31.1914 19.3638 31.2169 19.2636 31.2427C19.1634 31.2685 19.0662 31.2878 18.9695 31.307C18.9577 31.3076 18.9461 31.3098 18.935 31.3136C18.8348 31.3298 18.738 31.3456 18.6378 31.3552C18.5376 31.3648 18.4277 31.3779 18.3209 31.3845C18.2183 31.3872 18.1184 31.3906 18.0147 31.3906Z" fill="url(#paint1_linear_806_292)"/>
<path d="M47.504 25L41.36 8.2H44.648L49.4 21.856L54.176 8.2H57.416L51.272 25H47.504ZM62.6156 25.288C61.4156 25.288 60.3516 25.032 59.4236 24.52C58.4956 24.008 57.7676 23.288 57.2396 22.36C56.7116 21.432 56.4476 20.36 56.4476 19.144C56.4476 17.912 56.7036 16.816 57.2156 15.856C57.7436 14.896 58.4636 14.152 59.3756 13.624C60.3036 13.08 61.3916 12.808 62.6396 12.808C63.8076 12.808 64.8396 13.064 65.7356 13.576C66.6316 14.088 67.3276 14.792 67.8236 15.688C68.3356 16.568 68.5916 17.552 68.5916 18.64C68.5916 18.816 68.5836 19 68.5676 19.192C68.5676 19.384 68.5596 19.584 68.5436 19.792H59.4956C59.5596 20.72 59.8796 21.448 60.4556 21.976C61.0476 22.504 61.7596 22.768 62.5916 22.768C63.2156 22.768 63.7356 22.632 64.1516 22.36C64.5836 22.072 64.9036 21.704 65.1116 21.256H68.2316C68.0076 22.008 67.6316 22.696 67.1036 23.32C66.5916 23.928 65.9516 24.408 65.1836 24.76C64.4316 25.112 63.5756 25.288 62.6156 25.288ZM62.6396 15.304C61.8876 15.304 61.2236 15.52 60.6476 15.952C60.0716 16.368 59.7036 17.008 59.5436 17.872H65.4716C65.4236 17.088 65.1356 16.464 64.6076 16C64.0796 15.536 63.4236 15.304 62.6396 15.304ZM70.0953 25V7.72H73.1673V14.92C73.5673 14.264 74.1033 13.752 74.7753 13.384C75.4633 13 76.2473 12.808 77.1273 12.808C78.5993 12.808 79.7353 13.272 80.5353 14.2C81.3513 15.128 81.7593 16.488 81.7593 18.28V25H78.7113V18.568C78.7113 17.544 78.5033 16.76 78.0873 16.216C77.6873 15.672 77.0473 15.4 76.1673 15.4C75.3033 15.4 74.5833 15.704 74.0073 16.312C73.4473 16.92 73.1673 17.768 73.1673 18.856V25H70.0953ZM85.2729 11.248C84.7129 11.248 84.2489 11.08 83.8809 10.744C83.5289 10.408 83.3529 9.984 83.3529 9.472C83.3529 8.96 83.5289 8.544 83.8809 8.224C84.2489 7.888 84.7129 7.72 85.2729 7.72C85.8329 7.72 86.2889 7.888 86.6409 8.224C87.0089 8.544 87.1929 8.96 87.1929 9.472C87.1929 9.984 87.0089 10.408 86.6409 10.744C86.2889 11.08 85.8329 11.248 85.2729 11.248ZM83.7369 25V13.096H86.8089V25H83.7369ZM94.7673 25.288C93.5513 25.288 92.4793 25.024 91.5513 24.496C90.6233 23.968 89.8873 23.232 89.3433 22.288C88.8153 21.344 88.5513 20.264 88.5513 19.048C88.5513 17.832 88.8153 16.752 89.3433 15.808C89.8873 14.864 90.6233 14.128 91.5513 13.6C92.4793 13.072 93.5513 12.808 94.7673 12.808C96.2873 12.808 97.5673 13.208 98.6073 14.008C99.6473 14.792 100.311 15.88 100.599 17.272H97.3593C97.1993 16.696 96.8793 16.248 96.3993 15.928C95.9353 15.592 95.3833 15.424 94.7433 15.424C93.8953 15.424 93.1753 15.744 92.5833 16.384C91.9913 17.024 91.6953 17.912 91.6953 19.048C91.6953 20.184 91.9913 21.072 92.5833 21.712C93.1753 22.352 93.8953 22.672 94.7433 22.672C95.3833 22.672 95.9353 22.512 96.3993 22.192C96.8793 21.872 97.1993 21.416 97.3593 20.824H100.599C100.311 22.168 99.6473 23.248 98.6073 24.064C97.5673 24.88 96.2873 25.288 94.7673 25.288ZM102.246 25V7.72H105.318V25H102.246ZM113.161 25.288C111.961 25.288 110.897 25.032 109.969 24.52C109.041 24.008 108.313 23.288 107.785 22.36C107.257 21.432 106.993 20.36 106.993 19.144C106.993 17.912 107.249 16.816 107.761 15.856C108.289 14.896 109.009 14.152 109.921 13.624C110.849 13.08 111.937 12.808 113.185 12.808C114.353 12.808 115.385 13.064 116.281 13.576C117.177 14.088 117.873 14.792 118.369 15.688C118.881 16.568 119.137 17.552 119.137 18.64C119.137 18.816 119.129 19 119.113 19.192C119.113 19.384 119.105 19.584 119.089 19.792H110.041C110.105 20.72 110.425 21.448 111.001 21.976C111.593 22.504 112.305 22.768 113.137 22.768C113.761 22.768 114.281 22.632 114.697 22.36C115.129 22.072 115.449 21.704 115.657 21.256H118.777C118.553 22.008 118.177 22.696 117.649 23.32C117.137 23.928 116.497 24.408 115.729 24.76C114.977 25.112 114.121 25.288 113.161 25.288ZM113.185 15.304C112.433 15.304 111.769 15.52 111.193 15.952C110.617 16.368 110.249 17.008 110.089 17.872H116.017C115.969 17.088 115.681 16.464 115.153 16C114.625 15.536 113.969 15.304 113.185 15.304ZM132.695 25.288C131.111 25.288 129.727 24.928 128.543 24.208C127.359 23.488 126.439 22.488 125.783 21.208C125.127 19.912 124.799 18.408 124.799 16.696C124.799 14.968 125.135 13.448 125.807 12.136C126.495 10.808 127.463 9.776 128.711 9.04C129.975 8.288 131.471 7.912 133.199 7.912C135.167 7.912 136.799 8.384 138.095 9.328C139.391 10.272 140.231 11.576 140.615 13.24H137.183C136.927 12.456 136.463 11.848 135.791 11.416C135.119 10.968 134.255 10.744 133.199 10.744C131.519 10.744 130.223 11.28 129.311 12.352C128.399 13.408 127.943 14.864 127.943 16.72C127.943 18.576 128.391 20.016 129.287 21.04C130.199 22.048 131.431 22.552 132.983 22.552C134.503 22.552 135.647 22.144 136.415 21.328C137.199 20.496 137.671 19.408 137.831 18.064H133.583V15.76H140.927V25H138.095L137.855 22.792C137.311 23.592 136.631 24.208 135.815 24.64C134.999 25.072 133.959 25.288 132.695 25.288ZM148.546 25.288C147.346 25.288 146.282 25.032 145.354 24.52C144.426 24.008 143.698 23.288 143.17 22.36C142.642 21.432 142.378 20.36 142.378 19.144C142.378 17.912 142.634 16.816 143.146 15.856C143.674 14.896 144.394 14.152 145.306 13.624C146.234 13.08 147.322 12.808 148.57 12.808C149.738 12.808 150.77 13.064 151.666 13.576C152.562 14.088 153.258 14.792 153.754 15.688C154.266 16.568 154.522 17.552 154.522 18.64C154.522 18.816 154.514 19 154.498 19.192C154.498 19.384 154.49 19.584 154.474 19.792H145.426C145.49 20.72 145.81 21.448 146.386 21.976C146.978 22.504 147.69 22.768 148.522 22.768C149.146 22.768 149.666 22.632 150.082 22.36C150.514 22.072 150.834 21.704 151.042 21.256H154.162C153.938 22.008 153.562 22.696 153.034 23.32C152.522 23.928 151.882 24.408 151.114 24.76C150.362 25.112 149.506 25.288 148.546 25.288ZM148.57 15.304C147.818 15.304 147.154 15.52 146.578 15.952C146.002 16.368 145.634 17.008 145.474 17.872H151.402C151.354 17.088 151.066 16.464 150.538 16C150.01 15.536 149.354 15.304 148.57 15.304ZM156.026 25V13.096H158.738L158.978 15.112C159.346 14.408 159.874 13.848 160.562 13.432C161.266 13.016 162.09 12.808 163.034 12.808C164.506 12.808 165.65 13.272 166.466 14.2C167.282 15.128 167.69 16.488 167.69 18.28V25H164.618V18.568C164.618 17.544 164.41 16.76 163.994 16.216C163.578 15.672 162.93 15.4 162.05 15.4C161.186 15.4 160.474 15.704 159.914 16.312C159.37 16.92 159.098 17.768 159.098 18.856V25H156.026ZM171.203 11.248C170.643 11.248 170.179 11.08 169.811 10.744C169.459 10.408 169.283 9.984 169.283 9.472C169.283 8.96 169.459 8.544 169.811 8.224C170.179 7.888 170.643 7.72 171.203 7.72C171.763 7.72 172.219 7.888 172.571 8.224C172.939 8.544 173.123 8.96 173.123 9.472C173.123 9.984 172.939 10.408 172.571 10.744C172.219 11.08 171.763 11.248 171.203 11.248ZM169.667 25V13.096H172.739V25H169.667ZM179.33 25.288C177.842 25.288 176.69 24.824 175.874 23.896C175.074 22.968 174.674 21.608 174.674 19.816V13.096H177.722V19.528C177.722 20.552 177.93 21.336 178.346 21.88C178.762 22.424 179.418 22.696 180.314 22.696C181.162 22.696 181.858 22.392 182.402 21.784C182.962 21.176 183.242 20.328 183.242 19.24V13.096H186.314V25H183.602L183.362 22.984C182.994 23.688 182.458 24.248 181.754 24.664C181.066 25.08 180.258 25.288 179.33 25.288ZM193.307 25.288C192.251 25.288 191.323 25.12 190.523 24.784C189.723 24.432 189.083 23.952 188.603 23.344C188.123 22.736 187.835 22.032 187.739 21.232H190.835C190.931 21.696 191.187 22.096 191.603 22.432C192.035 22.752 192.587 22.912 193.259 22.912C193.931 22.912 194.419 22.776 194.723 22.504C195.043 22.232 195.203 21.92 195.203 21.568C195.203 21.056 194.979 20.712 194.531 20.536C194.083 20.344 193.459 20.16 192.659 19.984C192.147 19.872 191.627 19.736 191.099 19.576C190.571 19.416 190.083 19.216 189.635 18.976C189.203 18.72 188.851 18.4 188.579 18.016C188.307 17.616 188.171 17.128 188.171 16.552C188.171 15.496 188.587 14.608 189.419 13.888C190.267 13.168 191.451 12.808 192.971 12.808C194.379 12.808 195.499 13.136 196.331 13.792C197.179 14.448 197.683 15.352 197.843 16.504H194.939C194.763 15.624 194.099 15.184 192.947 15.184C192.371 15.184 191.923 15.296 191.603 15.52C191.299 15.744 191.147 16.024 191.147 16.36C191.147 16.712 191.379 16.992 191.843 17.2C192.307 17.408 192.923 17.6 193.691 17.776C194.523 17.968 195.283 18.184 195.971 18.424C196.675 18.648 197.235 18.992 197.651 19.456C198.067 19.904 198.275 20.552 198.275 21.4C198.291 22.136 198.099 22.8 197.699 23.392C197.299 23.984 196.723 24.448 195.971 24.784C195.219 25.12 194.331 25.288 193.307 25.288Z" fill="black"/>
<defs>
<linearGradient id="paint0_linear_806_292" x1="17.6472" y1="24.5039" x2="34.6569" y2="0.576751" gradientUnits="userSpaceOnUse">
<stop offset="0.291667" stop-color="#53206E"/>
<stop offset="0.959056" stop-color="#4C6EE8"/>
</linearGradient>
<linearGradient id="paint1_linear_806_292" x1="3.17647" y1="2.19753" x2="18.79" y2="26.9949" gradientUnits="userSpaceOnUse">
<stop offset="0.229409" stop-color="#C82459"/>
<stop offset="0.771575" stop-color="#53206E"/>
<stop offset="0.938018" stop-color="#53206E"/>
</linearGradient>
</defs>
</svg>
