<svg width="3677" height="490" viewBox="0 0 3677 490" fill="none" xmlns="http://www.w3.org/2000/svg">
<path d="M300.771 490H300.558C298.886 490 297.163 489.943 295.491 489.84C293.71 489.731 291.936 489.57 290.213 489.352C288.49 489.134 286.708 488.871 284.985 488.601C284.883 488.559 284.773 488.542 284.663 488.549C283.044 488.228 281.424 487.856 279.81 487.477C277.235 486.902 274.699 486.168 272.214 485.281H272.157C269.627 484.421 267.201 483.458 264.774 482.386C263.968 482.008 263.161 481.686 262.406 481.239C261.651 480.792 260.786 480.488 260.031 480.092L259.98 480.041C259.173 479.611 258.418 479.181 257.674 478.751C256.931 478.321 256.112 477.897 255.369 477.415C254.02 476.606 252.672 475.804 251.381 474.944C248.226 472.784 245.203 470.441 242.327 467.926C241.463 467.175 240.708 466.475 239.901 465.672C239.365 465.191 238.881 464.704 238.339 464.17C237.371 463.207 236.397 462.186 235.458 461.166C234.518 460.145 233.63 459.079 232.714 458.007C231.797 456.935 230.933 455.862 230.127 454.733C229.32 453.603 228.455 452.439 227.648 451.247L225.706 448.38L225.061 447.411C216.85 433.731 212.511 418.095 212.503 402.161C212.475 384.708 217.733 367.652 227.591 353.214L298.886 248.031L300.667 245.457L303.197 241.701L346.524 177.743L435.495 46.5526C435.521 46.494 435.556 46.4399 435.599 46.3922L439.748 40.2801C446.1 30.4524 454.361 21.9862 464.045 15.3781C473.731 8.77006 484.645 4.15337 496.148 1.79916C507.651 -0.555062 519.511 -0.599274 531.032 1.6688C542.552 3.93687 553.502 8.47163 563.237 15.007C572.972 21.5424 581.294 29.9466 587.72 39.7265C594.146 49.5063 598.543 60.4646 600.652 71.9582C602.768 83.4518 602.548 95.2486 600.013 106.657C597.477 118.066 592.676 128.856 585.893 138.393L448.157 341.529C448.105 341.58 448.105 341.638 448.047 341.689L410.114 397.661L374.493 450.197C374.331 450.415 374.222 450.576 374.112 450.736C374.019 450.935 373.893 451.115 373.738 451.27V451.327C372.66 452.881 371.53 454.383 370.395 455.828C370.266 456.095 370.084 456.334 369.859 456.527C369.104 457.548 368.239 458.563 367.38 459.526C366.032 461.137 364.574 462.691 363.07 464.193L362.961 464.302C361.808 465.449 360.695 466.498 359.502 467.57C359.018 467.949 358.534 468.373 358.05 468.803C357.186 469.606 356.27 470.305 355.353 471.005C355.112 471.251 354.84 471.466 354.546 471.647C353.685 472.354 352.786 473.017 351.855 473.631C351.279 474.107 350.667 474.536 350.022 474.915C350.022 474.967 349.965 474.967 349.965 474.967C347.029 476.918 343.99 478.71 340.859 480.333C339.459 481.027 338.006 481.727 336.6 482.369C336.548 482.369 336.548 482.42 336.496 482.42C334.877 483.12 333.315 483.762 331.701 484.353C330.088 484.943 328.359 485.534 326.636 486.073C324.912 486.612 323.241 487.036 321.57 487.466C319.899 487.896 318.279 488.217 316.665 488.538C316.469 488.547 316.275 488.584 316.089 488.647C314.418 488.916 312.804 489.18 311.133 489.341C309.462 489.501 307.628 489.719 305.848 489.828C304.165 489.943 302.5 490 300.771 490Z" fill="url(#paint0_linear_18_9)"/>
<path d="M301.292 490H301.079C299.403 490 297.675 489.943 295.999 489.839C294.213 489.73 292.433 489.569 290.705 489.35C288.977 489.131 287.191 488.867 285.463 488.596C285.361 488.555 285.25 488.537 285.14 488.544C283.516 488.222 281.892 487.848 280.274 487.468C275.104 486.219 270.058 484.509 265.196 482.359C263.578 481.657 262.006 480.851 260.44 480.097L260.387 480.045C258.821 479.24 257.255 478.319 255.764 477.41C254.411 476.599 253.059 475.793 251.765 474.93C248.602 472.763 245.57 470.411 242.685 467.887C241.281 466.65 239.981 465.407 238.686 464.118C234.719 460.139 231.138 455.796 227.989 451.148L226.041 448.271L225.394 447.299L205.883 418.568L205.831 418.516C205.831 418.459 205.78 418.459 205.78 418.407C205.78 418.355 205.722 418.355 205.722 418.298H205.67C205.589 418.196 205.515 418.088 205.451 417.975L137.255 317.307L129.206 305.419L15.1296 137.173C5.19564 122.53 -0.0764786 105.248 0.000838374 87.578C0.0781553 69.9076 5.5014 52.6711 15.5631 38.1154C15.9388 37.5803 16.2624 37.1487 16.534 36.8265C24.3494 25.8498 34.6029 16.8164 46.4969 10.429C58.3907 4.04176 71.6049 0.472886 85.1103 0H93.5936C107.167 0.820026 120.369 4.74072 132.176 11.4583C143.983 18.1758 154.078 27.5098 161.679 38.7369L228.365 137.202L230.85 140.861L265.005 191.222L270.299 199.076C270.352 199.196 270.426 199.305 270.518 199.398L301.212 244.649L301.477 245.023L374.486 352.741C384.23 367.143 389.484 384.09 389.587 401.455C389.69 418.82 384.637 435.828 375.064 450.343C374.845 450.665 374.63 450.987 374.486 451.257C373.405 452.817 372.273 454.324 371.135 455.774C370.164 457.069 369.193 458.306 368.112 459.486C366.76 461.103 365.298 462.662 363.789 464.17L363.679 464.279C362.113 465.838 360.489 467.346 358.761 468.796C357.894 469.602 356.976 470.304 356.057 471.006C355.815 471.253 355.542 471.469 355.247 471.65C354.383 472.361 353.483 473.025 352.549 473.641C351.941 474.12 351.308 474.568 350.653 474.982C346.369 477.847 341.851 480.349 337.147 482.462C335.523 483.164 333.956 483.809 332.338 484.401C330.721 484.994 328.986 485.587 327.258 486.128C325.53 486.668 323.855 487.094 322.179 487.526C320.503 487.957 318.878 488.28 317.26 488.602C317.064 488.612 316.87 488.648 316.683 488.711C315.007 488.982 313.388 489.246 311.712 489.407C310.036 489.569 308.199 489.787 306.413 489.897C304.696 489.943 303.026 490 301.292 490Z" fill="url(#paint1_linear_18_9)"/>
<path d="M809.25 398L690.9 83H731.85L831.3 357.95L931.65 83H971.7L853.35 398H809.25ZM1063.29 403.4C1041.99 403.4 1023.09 398.6 1006.59 389C990.093 379.1 977.043 365.45 967.443 348.05C958.143 330.65 953.493 310.1 953.493 286.4C953.493 263 958.143 242.6 967.443 225.2C976.743 207.5 989.643 193.85 1006.14 184.25C1022.94 174.35 1042.29 169.4 1064.19 169.4C1085.79 169.4 1104.39 174.35 1119.99 184.25C1135.89 193.85 1148.04 206.6 1156.44 222.5C1164.84 238.4 1169.04 255.5 1169.04 273.8C1169.04 277.1 1168.89 280.4 1168.59 283.7C1168.59 287 1168.59 290.75 1168.59 294.95H990.843C991.743 312.05 995.643 326.3 1002.54 337.7C1009.74 348.8 1018.59 357.2 1029.09 362.9C1039.89 368.6 1051.29 371.45 1063.29 371.45C1078.89 371.45 1091.94 367.85 1102.44 360.65C1112.94 353.45 1120.59 343.7 1125.39 331.4H1162.74C1156.74 352.1 1145.19 369.35 1128.09 383.15C1111.29 396.65 1089.69 403.4 1063.29 403.4ZM1063.29 201.35C1045.29 201.35 1029.24 206.9 1015.14 218C1001.34 228.8 993.393 244.7 991.293 265.7H1131.69C1130.79 245.6 1123.89 229.85 1110.99 218.45C1098.09 207.05 1082.19 201.35 1063.29 201.35ZM1198.89 398V74H1236.69V213.05C1244.19 199.25 1254.84 188.6 1268.64 181.1C1282.44 173.3 1297.44 169.4 1313.64 169.4C1339.44 169.4 1360.14 177.5 1375.74 193.7C1391.34 209.6 1399.14 234.2 1399.14 267.5V398H1361.79V271.55C1361.79 225.05 1343.04 201.8 1305.54 201.8C1286.04 201.8 1269.69 208.85 1256.49 222.95C1243.29 236.75 1236.69 256.55 1236.69 282.35V398H1198.89ZM1459.11 125.3C1451.61 125.3 1445.31 122.9 1440.21 118.1C1435.41 113 1433.01 106.7 1433.01 99.2C1433.01 92 1435.41 86 1440.21 81.2C1445.31 76.4 1451.61 74 1459.11 74C1466.31 74 1472.46 76.4 1477.56 81.2C1482.66 86 1485.21 92 1485.21 99.2C1485.21 106.7 1482.66 113 1477.56 118.1C1472.46 122.9 1466.31 125.3 1459.11 125.3ZM1440.21 398V174.8H1478.01V398H1440.21ZM1626.18 403.4C1604.88 403.4 1585.68 398.6 1568.58 389C1551.78 379.1 1538.43 365.45 1528.53 348.05C1518.93 330.35 1514.13 309.8 1514.13 286.4C1514.13 263 1518.93 242.6 1528.53 225.2C1538.43 207.5 1551.78 193.85 1568.58 184.25C1585.68 174.35 1604.88 169.4 1626.18 169.4C1652.58 169.4 1674.78 176.3 1692.78 190.1C1711.08 203.9 1722.63 222.35 1727.43 245.45H1688.73C1685.73 231.65 1678.38 221 1666.68 213.5C1654.98 205.7 1641.33 201.8 1625.73 201.8C1613.13 201.8 1601.28 204.95 1590.18 211.25C1579.08 217.55 1570.08 227 1563.18 239.6C1556.28 252.2 1552.83 267.8 1552.83 286.4C1552.83 305 1556.28 320.6 1563.18 333.2C1570.08 345.8 1579.08 355.4 1590.18 362C1601.28 368.3 1613.13 371.45 1625.73 371.45C1641.33 371.45 1654.98 367.7 1666.68 360.2C1678.38 352.4 1685.73 341.45 1688.73 327.35H1727.43C1722.93 349.85 1711.53 368.15 1693.23 382.25C1674.93 396.35 1652.58 403.4 1626.18 403.4ZM1759.97 398V74H1797.77V398H1759.97ZM1939.83 403.4C1918.53 403.4 1899.63 398.6 1883.13 389C1866.63 379.1 1853.58 365.45 1843.98 348.05C1834.68 330.65 1830.03 310.1 1830.03 286.4C1830.03 263 1834.68 242.6 1843.98 225.2C1853.28 207.5 1866.18 193.85 1882.68 184.25C1899.48 174.35 1918.83 169.4 1940.73 169.4C1962.33 169.4 1980.93 174.35 1996.53 184.25C2012.43 193.85 2024.58 206.6 2032.98 222.5C2041.38 238.4 2045.58 255.5 2045.58 273.8C2045.58 277.1 2045.43 280.4 2045.13 283.7C2045.13 287 2045.13 290.75 2045.13 294.95H1867.38C1868.28 312.05 1872.18 326.3 1879.08 337.7C1886.28 348.8 1895.13 357.2 1905.63 362.9C1916.43 368.6 1927.83 371.45 1939.83 371.45C1955.43 371.45 1968.48 367.85 1978.98 360.65C1989.48 353.45 1997.13 343.7 2001.93 331.4H2039.28C2033.28 352.1 2021.73 369.35 2004.63 383.15C1987.83 396.65 1966.23 403.4 1939.83 403.4ZM1939.83 201.35C1921.83 201.35 1905.78 206.9 1891.68 218C1877.88 228.8 1869.93 244.7 1867.83 265.7H2008.23C2007.33 245.6 2000.43 229.85 1987.53 218.45C1974.63 207.05 1958.73 201.35 1939.83 201.35ZM2311.97 403.4C2282.57 403.4 2256.77 396.65 2234.57 383.15C2212.37 369.35 2195.12 350.3 2182.82 326C2170.52 301.4 2164.37 273.05 2164.37 240.95C2164.37 208.85 2170.52 180.5 2182.82 155.9C2195.42 131.3 2213.12 112.1 2235.92 98.3C2259.02 84.5 2286.17 77.6 2317.37 77.6C2352.77 77.6 2382.17 86.15 2405.57 103.25C2429.27 120.35 2444.57 143.9 2451.47 173.9H2407.82C2403.62 155 2393.57 140 2377.67 128.9C2362.07 117.8 2341.97 112.25 2317.37 112.25C2294.27 112.25 2274.17 117.5 2257.07 128C2239.97 138.2 2226.62 152.9 2217.02 172.1C2207.72 191.3 2203.07 214.25 2203.07 240.95C2203.07 267.65 2207.72 290.6 2217.02 309.8C2226.32 329 2239.22 343.85 2255.72 354.35C2272.22 364.55 2291.42 369.65 2313.32 369.65C2346.92 369.65 2372.27 359.9 2389.37 340.4C2406.47 320.6 2416.22 293.6 2418.62 259.4H2327.72V229.7H2457.32V398H2422.67L2419.52 346.25C2408.12 364.55 2394.17 378.65 2377.67 388.55C2361.17 398.45 2339.27 403.4 2311.97 403.4ZM2594.94 403.4C2573.64 403.4 2554.74 398.6 2538.24 389C2521.74 379.1 2508.69 365.45 2499.09 348.05C2489.79 330.65 2485.14 310.1 2485.14 286.4C2485.14 263 2489.79 242.6 2499.09 225.2C2508.39 207.5 2521.29 193.85 2537.79 184.25C2554.59 174.35 2573.94 169.4 2595.84 169.4C2617.44 169.4 2636.04 174.35 2651.64 184.25C2667.54 193.85 2679.69 206.6 2688.09 222.5C2696.49 238.4 2700.69 255.5 2700.69 273.8C2700.69 277.1 2700.54 280.4 2700.24 283.7C2700.24 287 2700.24 290.75 2700.24 294.95H2522.49C2523.39 312.05 2527.29 326.3 2534.19 337.7C2541.39 348.8 2550.24 357.2 2560.74 362.9C2571.54 368.6 2582.94 371.45 2594.94 371.45C2610.54 371.45 2623.59 367.85 2634.09 360.65C2644.59 353.45 2652.24 343.7 2657.04 331.4H2694.39C2688.39 352.1 2676.84 369.35 2659.74 383.15C2642.94 396.65 2621.34 403.4 2594.94 403.4ZM2594.94 201.35C2576.94 201.35 2560.89 206.9 2546.79 218C2532.99 228.8 2525.04 244.7 2522.94 265.7H2663.34C2662.44 245.6 2655.54 229.85 2642.64 218.45C2629.74 207.05 2613.84 201.35 2594.94 201.35ZM2730.55 398V174.8H2764.75L2767 214.85C2774.2 200.75 2784.55 189.65 2798.05 181.55C2811.55 173.45 2826.85 169.4 2843.95 169.4C2870.35 169.4 2891.35 177.5 2906.95 193.7C2922.85 209.6 2930.8 234.2 2930.8 267.5V398H2893V271.55C2893 225.05 2873.8 201.8 2835.4 201.8C2816.2 201.8 2800.15 208.85 2787.25 222.95C2774.65 236.75 2768.35 256.55 2768.35 282.35V398H2730.55ZM2990.77 125.3C2983.27 125.3 2976.97 122.9 2971.87 118.1C2967.07 113 2964.67 106.7 2964.67 99.2C2964.67 92 2967.07 86 2971.87 81.2C2976.97 76.4 2983.27 74 2990.77 74C2997.97 74 3004.12 76.4 3009.22 81.2C3014.32 86 3016.87 92 3016.87 99.2C3016.87 106.7 3014.32 113 3009.22 118.1C3004.12 122.9 2997.97 125.3 2990.77 125.3ZM2971.87 398V174.8H3009.67V398H2971.87ZM3136.68 403.4C3110.28 403.4 3089.28 395.45 3073.68 379.55C3058.08 363.35 3050.28 338.6 3050.28 305.3V174.8H3088.08V301.25C3088.08 347.75 3107.13 371 3145.23 371C3164.73 371 3180.78 364.1 3193.38 350.3C3206.28 336.2 3212.73 316.25 3212.73 290.45V174.8H3250.53V398H3216.33L3213.63 357.95C3206.73 372.05 3196.38 383.15 3182.58 391.25C3169.08 399.35 3153.78 403.4 3136.68 403.4ZM3378 403.4C3351.3 403.4 3329.1 396.65 3311.4 383.15C3293.7 369.65 3283.35 351.35 3280.35 328.25H3319.05C3321.45 339.95 3327.6 350.15 3337.5 358.85C3347.7 367.25 3361.35 371.45 3378.45 371.45C3394.35 371.45 3406.05 368.15 3413.55 361.55C3421.05 354.65 3424.8 346.55 3424.8 337.25C3424.8 323.75 3419.85 314.75 3409.95 310.25C3400.35 305.75 3386.7 301.7 3369 298.1C3357 295.7 3345 292.25 3333 287.75C3321 283.25 3310.95 276.95 3302.85 268.85C3294.75 260.45 3290.7 249.5 3290.7 236C3290.7 216.5 3297.9 200.6 3312.3 188.3C3327 175.7 3346.8 169.4 3371.7 169.4C3395.4 169.4 3414.75 175.4 3429.75 187.4C3445.05 199.1 3453.9 215.9 3456.3 237.8H3418.95C3417.45 226.4 3412.5 217.55 3404.1 211.25C3396 204.65 3385.05 201.35 3371.25 201.35C3357.75 201.35 3347.25 204.2 3339.75 209.9C3332.55 215.6 3328.95 223.1 3328.95 232.4C3328.95 241.4 3333.6 248.45 3342.9 253.55C3352.5 258.65 3365.4 263 3381.6 266.6C3395.4 269.6 3408.45 273.35 3420.75 277.85C3433.35 282.05 3443.55 288.5 3451.35 297.2C3459.45 305.6 3463.5 317.9 3463.5 334.1C3463.8 354.2 3456.15 370.85 3440.55 384.05C3425.25 396.95 3404.4 403.4 3378 403.4Z" fill="black"/>
<defs>
<linearGradient id="paint0_linear_18_9" x1="295.143" y1="374.82" x2="579.626" y2="-25.3551" gradientUnits="userSpaceOnUse">
<stop offset="0.291667" stop-color="#53206E"/>
<stop offset="0.959056" stop-color="#4C6EE8"/>
</linearGradient>
<linearGradient id="paint1_linear_18_9" x1="53.1257" y1="1.75211" x2="314.258" y2="416.481" gradientUnits="userSpaceOnUse">
<stop offset="0.229409" stop-color="#C82459"/>
<stop offset="0.771575" stop-color="#53206E"/>
<stop offset="0.938018" stop-color="#53206E"/>
</linearGradient>
</defs>
</svg>
